<?xml version="1.0" encoding="utf-8"?>
<!-- Svg Vector Icons : http://www.onlinewebfonts.com/icon -->
<!DOCTYPE svg PUBLIC "-//W3C//DTD SVG 1.1//EN" "http://www.w3.org/Graphics/SVG/1.1/DTD/svg11.dtd">
<svg version="1.1" xmlns="http://www.w3.org/2000/svg" xmlns:xlink="http://www.w3.org/1999/xlink" x="0px" y="0px" viewBox="0 0 1000 1000" enable-background="new 0 0 1000 1000" xml:space="preserve">
<metadata> Svg Vector Icons : http://www.onlinewebfonts.com/icon </metadata>
<g><g transform="translate(0.000000,511.000000) scale(0.100000,-0.100000)"><path d="M6949.1,4967.3c0-62.4-48.8-737.6-67.8-916.6l-13.6-138.3l528.8-35.2c290.2-19,528.8-43.4,528.8-51.5c0-8.1-366.1-382.4-810.9-827.1c-591.2-591.2-821.7-805.4-854.2-794.6c-24.4,10.9-119.3,67.8-211.5,130.2c-360.7,246.8-900.3,458.3-1418.3,555.9c-328.1,65.1-992.5,62.4-1342.4,0c-509.8-92.2-1027.8-298.3-1453.5-580.3C953.2,1723.9,383.7,880.5,153.2-190.6c-70.5-320-70.5-1130.8-2.7-1472.5C386.5-2832,1145.8-3838,2189.8-4372.3c547.8-279.3,1003.4-395.9,1627.1-420.3c740.3-29.8,1421,132.9,2033.9,482.7c702.4,398.7,1231.2,962.7,1589.1,1692.2C7711.1-2061.8,7825-1557.4,7825-922.8c-2.7,471.9-51.5,786.4-197.9,1223c-116.6,355.3-217,566.8-409.5,867.8c-73.2,113.9-132.9,216.9-132.9,230.5c0,27.1,1602.7,1637.9,1629.8,1637.9c8.2,0,32.5-238.6,51.5-528.8l35.2-528.8l124.8,13.6c67.8,8.1,314.6,27.1,545.1,43.4c230.5,16.3,423,32.5,428.5,38c10.9,10.8-181.7,2730.8-195.3,2744.4c-8.1,8.1-2595.2,198-2706.4,198C6968.1,5016.1,6949.1,4994.4,6949.1,4967.3z M4286.1,1816.1C5899.6,1612.7,6989.8,99.5,6664.4-1492.3c-127.5-615.6-482.7-1195.9-973.6-1589.1c-905.7-724.1-2164-808.1-3167.4-211.5c-439.3,263.1-911.2,805.4-1106.4,1277.3c-165.4,393.2-198,574.9-200.7,1065.7c-2.7,550.5,48.8,789.1,265.8,1233.9C2008.1,1349.7,3122.7,1959.8,4286.1,1816.1z"/></g></g>
</svg>