<svg xmlns="http://www.w3.org/2000/svg" xmlns:xlink="http://www.w3.org/1999/xlink" width="40" height="40" viewBox="0 0 40 40"><defs><filter id="a" x="1" y="4" width="39" height="35.322" filterUnits="userSpaceOnUse"><feOffset dy="3" input="SourceAlpha"/><feGaussianBlur stdDeviation="3" result="b"/><feFlood flood-opacity="0.161"/><feComposite operator="in" in2="b"/><feComposite in="SourceGraphic"/></filter></defs><g transform="translate(-32 -520)"><g transform="translate(32 520)" fill="none" stroke="#f5fde3" stroke-width="2"><circle cx="20" cy="20" r="20" stroke="none"/><circle cx="20" cy="20" r="19" fill="none"/></g><g transform="matrix(1, 0, 0, 1, 32, 520)" filter="url(#a)"><path d="M-1969,17.322h-21a6.727,6.727,0,0,1,3.075-5.4,12.685,12.685,0,0,1,7.424-2.234,12.685,12.685,0,0,1,7.425,2.234,6.734,6.734,0,0,1,3.075,5.4Zm-15.345-12.476A4.846,4.846,0,0,1-1979.5,0a4.846,4.846,0,0,1,4.847,4.846,4.847,4.847,0,0,1-4.847,4.847A4.847,4.847,0,0,1-1984.346,4.846Z" transform="translate(2000 10)" fill="#f5fde3"/></g></g></svg>