<?xml version="1.0" standalone="no"?>
<!DOCTYPE svg PUBLIC "-//W3C//DTD SVG 20010904//EN"
 "http://www.w3.org/TR/2001/REC-SVG-20010904/DTD/svg10.dtd">
<svg version="1.0" xmlns="http://www.w3.org/2000/svg"
 width="294.000000pt" height="295.000000pt" viewBox="0 0 294.000000 295.000000"
 preserveAspectRatio="xMidYMid meet">

<g transform="translate(0.000000,295.000000) scale(0.100000,-0.100000)"
fill="#000000" stroke="none">
<path d="M1144 2931 c-425 -75 -798 -351 -994 -735 -97 -192 -139 -355 -146
-581 -9 -250 28 -430 135 -650 76 -156 160 -272 286 -393 198 -191 419 -308
686 -362 397 -81 816 19 1132 272 l72 57 270 -269 c285 -284 299 -295 338
-252 38 42 28 55 -253 337 l-269 270 46 55 c149 177 252 396 300 636 26 133
24 386 -5 521 -59 274 -173 491 -364 688 -121 126 -237 210 -393 286 -202 98
-386 139 -610 138 -76 0 -172 -8 -231 -18z m497 -111 c284 -58 531 -205 717
-426 134 -159 215 -318 269 -522 34 -129 43 -380 19 -518 -93 -536 -514 -957
-1050 -1050 -138 -24 -389 -15 -518 19 -491 129 -845 498 -949 990 -32 146
-31 372 1 512 58 260 170 467 349 646 212 211 467 332 791 373 70 9 274 -4
371 -24z"/>
</g>
</svg>
