<?xml version="1.0" encoding="utf-8"?>
<!-- Svg Vector Icons : http://www.onlinewebfonts.com/icon -->
<!DOCTYPE svg PUBLIC "-//W3C//DTD SVG 1.1//EN" "http://www.w3.org/Graphics/SVG/1.1/DTD/svg11.dtd">
<svg version="1.1" xmlns="http://www.w3.org/2000/svg" xmlns:xlink="http://www.w3.org/1999/xlink" x="0px" y="0px" viewBox="0 0 1000 1000" enable-background="new 0 0 1000 1000" xml:space="preserve">
<metadata> Svg Vector Icons : http://www.onlinewebfonts.com/icon </metadata>
<g><path d="M546.3,710.4c0,19,0,37.1,0,47c27.2,0,201.1,0,201.1,0v97c0,0-173.9,0-201.1,0c0,25.1,0,135.6,0,135.6h-98.6c0,0,0-110.4,0-135.6c-27.3,0-202,0-202,0v-97c0,0,174.7,0,202,0c0-10.1,0-28.9,0-48.1C279.4,683.8,150,538,150,361.8C150,167.8,307,10,500,10c193,0,350,157.8,350,351.8C850,540.1,717.3,687.5,546.3,710.4L546.3,710.4z M500,107c-139.7,0-253.4,114.3-253.4,254.9S360.3,616.7,500,616.7s253.5-114.4,253.5-254.9C753.5,221.2,639.7,107,500,107L500,107z"/></g>
</svg>